<svg xmlns="http://www.w3.org/2000/svg" xmlns:xlink="http://www.w3.org/1999/xlink" width="210" height="30.412" viewBox="0 0 210 30.412">
  <defs>
    <clipPath id="clip-path">
      <rect id="Rectangle_153" data-name="Rectangle 153" width="210" height="30.412" transform="translate(0 0)" fill="none"/>
    </clipPath>
  </defs>
  <g id="Groupe_521" data-name="Groupe 521" transform="translate(0 0)">
    <g id="Groupe_520" data-name="Groupe 520" clip-path="url(#clip-path)">
      <path id="Tracé_80" data-name="Tracé 80" d="M70.467,27.3a12.207,12.207,0,0,1-4.824-.929,11.362,11.362,0,0,1-6.193-6.259,11.8,11.8,0,0,1-.88-4.547V15.5a11.81,11.81,0,0,1,.88-4.547A11.5,11.5,0,0,1,61.927,7.2a11.892,11.892,0,0,1,8.6-3.505,12.19,12.19,0,0,1,4.824.93A11.457,11.457,0,0,1,79.1,7.155a11.6,11.6,0,0,1,2.445,3.732,11.826,11.826,0,0,1,.88,4.548V15.5a11.825,11.825,0,0,1-.88,4.547A11.521,11.521,0,0,1,79.072,23.8a11.9,11.9,0,0,1-8.6,3.5m.065-3.683a7.438,7.438,0,0,0,3.1-.637,7.315,7.315,0,0,0,2.418-1.727,7.971,7.971,0,0,0,1.574-2.558,8.581,8.581,0,0,0,.569-3.13V15.5a8.712,8.712,0,0,0-.569-3.145,7.813,7.813,0,0,0-1.59-2.575,7.7,7.7,0,0,0-2.451-1.744,7.544,7.544,0,0,0-8.633,1.711,8.011,8.011,0,0,0-1.574,2.559,8.58,8.58,0,0,0-.568,3.13V15.5a8.709,8.709,0,0,0,.568,3.146,7.806,7.806,0,0,0,1.591,2.574,7.676,7.676,0,0,0,2.45,1.745,7.409,7.409,0,0,0,3.116.652" fill="#263238"/>
      <path id="Tracé_81" data-name="Tracé 81" d="M86.014,9.7h3.977v2.7a9.513,9.513,0,0,1,.926-1.167,6.068,6.068,0,0,1,1.17-.971,5.985,5.985,0,0,1,1.462-.674,6.118,6.118,0,0,1,1.8-.246,5.724,5.724,0,0,1,4.517,1.792,7,7,0,0,1,1.593,4.824V26.907H97.487V17.152a4.569,4.569,0,0,0-.953-3.106,3.4,3.4,0,0,0-2.7-1.089,3.659,3.659,0,0,0-2.779,1.121,4.375,4.375,0,0,0-1.066,3.139v9.69H86.014Z" fill="#263238"/>
      <path id="Tracé_82" data-name="Tracé 82" d="M113.294,27.3a9.179,9.179,0,0,1-3.47-.652A8.321,8.321,0,0,1,105.146,22a9.377,9.377,0,0,1-.685-3.634V18.3a9.714,9.714,0,0,1,.62-3.488,8.769,8.769,0,0,1,1.744-2.853,8.24,8.24,0,0,1,2.656-1.922,8.054,8.054,0,0,1,3.39-.7,8.174,8.174,0,0,1,3.6.75,7.415,7.415,0,0,1,2.574,2.021,8.772,8.772,0,0,1,1.548,2.949,11.855,11.855,0,0,1,.523,3.538c0,.174-.006.353-.017.537s-.028.375-.049.571H108.406a5.031,5.031,0,0,0,1.678,3.243,4.952,4.952,0,0,0,3.275,1.124,5.765,5.765,0,0,0,2.543-.522,8.245,8.245,0,0,0,2.119-1.531l2.314,2.053a9.508,9.508,0,0,1-2.95,2.346,8.831,8.831,0,0,1-4.091.881m3.912-10.2a6.752,6.752,0,0,0-.424-1.777,4.55,4.55,0,0,0-.88-1.434,4.207,4.207,0,0,0-1.32-.962,4.069,4.069,0,0,0-1.744-.358,3.975,3.975,0,0,0-3.014,1.254,5.664,5.664,0,0,0-1.451,3.277Z" fill="#263238"/>
      <path id="Tracé_83" data-name="Tracé 83" d="M132.883,27.232a13.476,13.476,0,0,1-5-.9,14.276,14.276,0,0,1-4.318-2.754l1.6-1.891a13.406,13.406,0,0,0,3.618,2.429,10.392,10.392,0,0,0,4.2.8,5.8,5.8,0,0,0,3.7-1.092,3.394,3.394,0,0,0,1.385-2.787v-.065a3.726,3.726,0,0,0-.26-1.418,2.927,2.927,0,0,0-.916-1.156,6.5,6.5,0,0,0-1.812-.946,23.383,23.383,0,0,0-2.958-.814,23.628,23.628,0,0,1-3.414-.979,8.508,8.508,0,0,1-2.4-1.336A4.913,4.913,0,0,1,124.9,12.5a6.061,6.061,0,0,1-.457-2.445V9.99A5.594,5.594,0,0,1,125,7.512a5.81,5.81,0,0,1,1.565-1.971,7.606,7.606,0,0,1,2.379-1.3,9.161,9.161,0,0,1,3-.472,12.5,12.5,0,0,1,4.383.7,13.358,13.358,0,0,1,3.634,2.1l-1.5,1.988a11.124,11.124,0,0,0-3.21-1.89,9.78,9.78,0,0,0-3.374-.587,5.477,5.477,0,0,0-3.552,1.058,3.257,3.257,0,0,0-1.3,2.625v.064a3.8,3.8,0,0,0,.26,1.452,2.952,2.952,0,0,0,.946,1.173,6.937,6.937,0,0,0,1.89.978,23.039,23.039,0,0,0,3.1.831,13.469,13.469,0,0,1,5.622,2.347,5.047,5.047,0,0,1,1.809,4.107v.065a5.985,5.985,0,0,1-.58,2.656,6.075,6.075,0,0,1-1.6,2.037,7.152,7.152,0,0,1-2.451,1.3,10.294,10.294,0,0,1-3.13.456" fill="#24bdb0"/>
      <path id="Tracé_84" data-name="Tracé 84" d="M150.288,27.2a6.623,6.623,0,0,1-1.891-.261,3.89,3.89,0,0,1-1.515-.831,3.839,3.839,0,0,1-1-1.483,5.973,5.973,0,0,1-.358-2.184V12.272h-2.346V10.056h2.346V4.971h2.51v5.085h5.345v2.216h-5.345v9.819a2.627,2.627,0,0,0,.782,2.178,3.217,3.217,0,0,0,2.053.618,5.34,5.34,0,0,0,2.445-.554v2.151a5.585,5.585,0,0,1-1.385.538,6.981,6.981,0,0,1-1.646.179" fill="#24bdb0"/>
      <path id="Tracé_85" data-name="Tracé 85" d="M164.7,27.3a8.584,8.584,0,0,1-3.488-.7,8.82,8.82,0,0,1-2.771-1.89,8.526,8.526,0,0,1-1.824-2.77,8.757,8.757,0,0,1-.652-3.374V18.5a8.886,8.886,0,0,1,.652-3.391,8.6,8.6,0,0,1,4.611-4.71,8.913,8.913,0,0,1,9.828,1.891,8.557,8.557,0,0,1,1.824,2.771,8.757,8.757,0,0,1,.652,3.374V18.5a8.678,8.678,0,0,1-.668,3.389,8.911,8.911,0,0,1-1.841,2.8,8.6,8.6,0,0,1-2.8,1.906,8.825,8.825,0,0,1-3.52.7m.065-2.249a5.968,5.968,0,0,0,2.51-.521,6.106,6.106,0,0,0,1.956-1.4,6.425,6.425,0,0,0,1.27-2.053,6.851,6.851,0,0,0,.457-2.51V18.5a6.872,6.872,0,0,0-.473-2.559,6.485,6.485,0,0,0-1.32-2.086,6.337,6.337,0,0,0-1.988-1.419,5.919,5.919,0,0,0-2.477-.521,6,6,0,0,0-2.51.521,5.881,5.881,0,0,0-1.939,1.4,6.5,6.5,0,0,0-1.255,2.071,6.975,6.975,0,0,0-.457,2.526V18.5a6.863,6.863,0,0,0,.473,2.558,6.441,6.441,0,0,0,1.3,2.07,6.275,6.275,0,0,0,1.972,1.4,5.882,5.882,0,0,0,2.477.521" fill="#24bdb0"/>
      <path id="Tracé_86" data-name="Tracé 86" d="M184.838,27.3a8.409,8.409,0,0,1-3.439-.7,8.56,8.56,0,0,1-4.547-4.677,8.8,8.8,0,0,1-.652-3.358V18.5a8.914,8.914,0,0,1,2.461-6.194A8.565,8.565,0,0,1,181.4,10.4a8.392,8.392,0,0,1,3.439-.7,9.7,9.7,0,0,1,2.183.227,8.092,8.092,0,0,1,1.793.637,8.2,8.2,0,0,1,1.5.961,13.439,13.439,0,0,1,1.271,1.173l-1.662,1.76a11.965,11.965,0,0,0-2.2-1.792,5.369,5.369,0,0,0-2.918-.75,5.674,5.674,0,0,0-2.379.505A5.96,5.96,0,0,0,180.5,13.8a6.369,6.369,0,0,0-1.272,2.069,7.094,7.094,0,0,0-.456,2.56V18.5a6.863,6.863,0,0,0,.473,2.558,6.637,6.637,0,0,0,1.3,2.086,5.9,5.9,0,0,0,4.416,1.907,5.719,5.719,0,0,0,2.884-.717,9.719,9.719,0,0,0,2.266-1.793l1.6,1.5a11.217,11.217,0,0,1-2.883,2.348,8.027,8.027,0,0,1-3.993.912" fill="#24bdb0"/>
      <path id="Tracé_87" data-name="Tracé 87" d="M195.04,3.113h2.51V19.541l9.093-9.486h3.13L202.7,17.292l7.3,9.615h-3l-6.03-7.855-3.422,3.455v4.4h-2.51Z" fill="#24bdb0"/>
      <path id="Tracé_88" data-name="Tracé 88" d="M27.322,15.206A12.122,12.122,0,1,1,18.03,3.426a25.169,25.169,0,0,1,4.1-1.757,15.2,15.2,0,1,0-6.921,28.743c9.608,0,22-4.011,23.035-15.206l-5.358-5.22Z" fill="#263238"/>
      <path id="Tracé_89" data-name="Tracé 89" d="M20.617,15.206a12.122,12.122,0,1,1,9.292,11.78,25.12,25.12,0,0,1-4.1,1.757A15.2,15.2,0,1,0,32.732,0c-9.608,0-22,4.011-23.035,15.206l5.357,5.22Z" fill="#24bdb0"/>
    </g>
  </g>
</svg>
